<?xml version="1.0" encoding="UTF-8" standalone="no"?><!DOCTYPE svg PUBLIC "-//W3C//DTD SVG 1.1//EN" "http://www.w3.org/Graphics/SVG/1.1/DTD/svg11.dtd"><svg width="100%" height="100%" viewBox="0 0 45 84" version="1.1" xmlns="http://www.w3.org/2000/svg" xmlns:xlink="http://www.w3.org/1999/xlink" xml:space="preserve" xmlns:serif="http://www.serif.com/" style="fill-rule:evenodd;clip-rule:evenodd;stroke-linejoin:round;stroke-miterlimit:2;"><rect id="logoColor" x="0.695" y="0.462" width="43.125" height="82.5" style="fill:none;"/><clipPath id="_clip1"><rect id="logoColor1" serif:id="logoColor" x="0.695" y="0.462" width="43.125" height="82.5"/></clipPath><g clip-path="url(#_clip1)"><g><path d="M8.195,79.212c0,2.069 -1.68,3.75 -3.75,3.75c-2.07,-0 -3.75,-1.681 -3.75,-3.75l0,-75c0,-2.07 1.68,-3.75 3.75,-3.75c2.07,-0 3.75,1.68 3.75,3.75l0,75Z" style="fill:#14b8a6;"/><path d="M23.591,40.035c0.926,-1.852 3.18,-2.603 5.031,-1.677c1.851,0.925 2.603,3.18 1.677,5.031l-8.536,17.073l8.536,17.073c0.926,1.851 0.174,4.105 -1.677,5.031c-1.851,0.925 -4.105,0.174 -5.031,-1.677l-9.375,-18.75c-0.528,-1.056 -0.528,-2.299 -0,-3.354l9.375,-18.75Z" style="fill:#14b8a6;"/><path d="M36.716,40.035c0.925,-1.852 3.18,-2.603 5.031,-1.677c1.851,0.925 2.603,3.18 1.677,5.031l-8.536,17.073l8.536,17.073c0.926,1.851 0.174,4.105 -1.677,5.031c-1.851,0.925 -4.106,0.174 -5.031,-1.677l-9.375,-18.75c-0.528,-1.056 -0.528,-2.299 -0,-3.354l9.375,-18.75Z" style="fill:#14b8a6;"/></g></g></svg>